Coordinates
version=1
nRows=16
nColumns=42
inDegrees=yes

Units are S.I. units (second, meters, Newtons, ...)
If the header above contains a line with 'inDegrees', this indicates whether rotational values are in degrees (yes) or radians (no).

endheader
time	pelvis_tilt	pelvis_list	pelvis_rotation	pelvis_tx	pelvis_ty	pelvis_tz	hip_flexion_r	hip_adduction_r	hip_rotation_r	knee_angle_r	knee_adduction_r	knee_angle_r_beta	ankle_angle_r	subtalar_angle_r	mtp_angle_r	hip_flexion_l	hip_adduction_l	hip_rotation_l	knee_angle_l	knee_adduction_l	knee_angle_l_beta	ankle_angle_l	subtalar_angle_l	mtp_angle_l	lumbar_extension	lumbar_bending	lumbar_rotation	arm_flex_r	arm_add_r	arm_rot_r	elbow_flex_r	pro_sup_r	wrist_flex_r	wrist_dev_r	arm_flex_l	arm_add_l	arm_rot_l	elbow_flex_l	pro_sup_l	wrist_flex_l	wrist_dev_l
      1.96000000	      0.27030308	      0.85056370	     -7.57192268	      0.11051626	      0.86497893	     -0.17185474	    -19.97238661	     -8.70878512	      0.39744491	     16.26132533	     14.22109988	      0.28381367	     11.56759070	      6.27124162	     -7.50637813	     23.10249136	     -7.02024675	     -6.05791120	     12.44889599	     14.68615046	      0.21727422	     -3.67258762	     -5.97956189	     -7.50637813	    -12.66870934	     -2.10509826	      4.86962726	     -3.84417935	    -13.79744852	     -4.36802321	     19.39452322	     90.00000001	      0.00000000	      0.00000000	    -13.00159954	     -7.49648454	      3.37410807	     20.23812191	     90.00000001	      0.00000000	      0.00000000
      1.97000000	      0.53174805	      0.94242167	     -7.38717219	      0.12273395	      0.86599863	     -0.17323066	    -19.90547509	     -9.27036035	      0.53029458	     18.29446991	     14.70939103	      0.31929873	      9.49683865	      6.17116785	     -7.50626987	     22.79008653	     -6.78085294	     -5.26030034	     13.63970598	     15.00918713	      0.23805778	     -4.38303132	     -5.96733807	     -7.50626987	    -13.08935636	     -2.29494409	      4.63576266	     -4.05673477	    -13.81123069	     -4.45762309	     19.30447462	     90.00000001	      0.00000000	      0.00000000	    -12.82324142	     -7.65833671	      3.32621531	     20.29030172	     90.00000001	      0.00000000	      0.00000000
      1.98000000	      0.68297586	      1.13990564	     -7.19681336	      0.13501444	      0.86712053	     -0.17443797	    -19.40856417	     -9.84118027	      0.11069239	     20.95626242	     14.82384593	      0.36575578	      6.95039241	      5.96498248	     -7.50612859	     22.56343525	     -6.46460144	     -4.68081711	     14.84704142	     15.30225813	      0.25912976	     -4.80995777	     -6.18966783	     -7.50612859	    -13.34140697	     -2.61245485	      4.39304032	     -4.28641231	    -13.72597376	     -4.56949464	     19.11076562	     90.00000001	      0.00000000	      0.00000000	    -12.64685861	     -7.88061426	      3.24647187	     20.26537006	     90.00000001	      0.00000000	      0.00000000
      1.99000000	      0.84332475	      1.22810723	     -6.94178223	      0.14706777	      0.86845667	     -0.17576176	    -18.74230298	    -10.36937702	     -0.24980036	     23.86499475	     15.12041322	      0.41652273	      4.45389912	      6.02371917	     -7.50598617	     22.23851240	     -6.24654925	     -4.08542719	     15.90482802	     15.61643825	      0.27759162	     -4.75923689	     -6.28314678	     -7.50598617	    -13.65980795	     -2.77191409	      4.11203986	     -4.50302214	    -13.68913253	     -4.67520566	     18.94438943	     90.00000001	      0.00000000	      0.00000000	    -12.43005991	     -8.10904906	      3.17747708	     20.29444192	     90.00000001	      0.00000000	      0.00000000
      2.00000000	      0.60237748	      1.44469898	     -6.67588785	      0.15875201	      0.86921465	     -0.17722958	    -17.04075963	    -11.07335167	     -1.96120579	     28.10822521	     14.82070033	      0.49058108	      2.70506949	      8.70212662	     -7.50541958	     22.40655282	     -5.91052595	     -3.60071052	     17.04535773	     15.85453139	      0.29749761	     -4.43679111	     -6.31077835	     -7.50541958	    -13.51613169	     -2.99826340	      3.80383303	     -4.71526167	    -13.62575482	     -4.88135349	     18.73372087	     90.00000001	      0.00000000	      0.00000000	    -12.24975934	     -8.32866995	      3.08306013	     20.29869439	     90.00000001	      0.00000000	      0.00000000
      2.01000000	      0.92269909	      1.47989043	     -6.43745822	      0.17077225	      0.87116250	     -0.17847056	    -16.32429998	    -11.53736936	     -1.92833400	     31.04175480	     14.99468918	      0.54178083	     -0.19345969	      7.97168741	     -7.50533398	     21.59959080	     -5.72833121	     -3.15627163	     17.63912085	     16.17666511	      0.30786074	     -3.69827766	     -6.25522372	     -7.50533398	    -14.01028781	     -3.09893272	      3.53479879	     -4.89491479	    -13.59866215	     -4.90375431	     18.58362821	     90.00000001	      0.00000000	      0.00000000	    -12.01687015	     -8.55649226	      3.06131696	     20.38669332	     90.00000001	      0.00000000	      0.00000000
      2.02000000	      1.05293810	      1.51959433	     -6.20495890	      0.18247057	      0.87295462	     -0.17975980	    -15.11771861	    -11.99177812	     -1.91965553	     34.32843577	     15.07891422	      0.59914423	     -2.80263225	      7.18145485	     -7.50525188	     20.95832250	     -5.55048888	     -2.82349740	     18.15161961	     16.44712793	      0.31680553	     -2.75948274	     -6.02683256	     -7.50525188	    -14.31057314	     -3.15773456	      3.27274722	     -5.07424658	    -13.59058299	     -4.92382417	     18.43397867	     90.00000001	      0.00000000	      0.00000000	    -11.79254341	     -8.77337154	      3.03960453	     20.48416802	     90.00000001	      0.00000000	      0.00000000
      2.03000000	      0.62990220	      1.56707425	     -5.94222446	      0.19360888	      0.87389586	     -0.18122760	    -12.93153388	    -12.47038186	     -2.18273965	     38.21207111	     15.01458662	      0.66692645	     -4.53514112	      7.03493193	     -7.50496231	     21.15693231	     -5.38454869	     -3.09809670	     19.20743229	     16.43911150	      0.33523293	     -1.57910177	     -4.86118033	     -7.50496231	    -13.99985365	     -3.12551889	      3.03802496	     -5.30230106	    -13.59341425	     -4.93997764	     18.27474541	     90.00000001	      0.00000000	      0.00000000	    -11.57523392	     -8.98507734	      3.02005787	     20.53548302	     90.00000001	      0.00000000	      0.00000000
      2.04000000	      0.80618111	      1.52373887	     -5.71789658	      0.20510497	      0.87590644	     -0.18222988	    -11.60415681	    -12.66481323	     -1.81504662	     41.25621810	     14.90774896	      0.72005684	     -6.32396811	      5.93997960	     -7.50485540	     20.24146145	     -5.31221105	     -2.95328289	     19.38345293	     16.68903825	      0.33830507	     -0.36599520	     -4.28698949	     -7.50485540	    -14.34700154	     -3.10276417	      2.79697099	     -5.46595549	    -13.58433974	     -4.91029595	     18.17542811	     90.00000001	      0.00000000	      0.00000000	    -11.35851211	     -9.23437515	      3.01599689	     20.72991039	     90.00000001	      0.00000000	      0.00000000
      2.05000000	      0.68116060	      1.52878949	     -5.50723525	      0.21612255	      0.87753977	     -0.18335204	     -9.73312852	    -12.91155428	     -1.32827349	     44.42066650	     14.88514929	      0.77528689	     -7.46278941	      4.42293604	     -7.50473575	     19.68049662	     -5.16834665	     -2.96922497	     19.54806045	     16.78461888	      0.34117802	      0.67438699	     -3.51694256	     -7.50473575	    -14.37072146	     -3.06532943	      2.59754181	     -5.64375828	    -13.56888190	     -4.87027052	     18.05743807	     90.00000001	      0.00000000	      0.00000000	    -11.11858298	     -9.46003463	      3.03074982	     20.90665031	     90.00000001	      0.00000000	      0.00000000
      2.06000000	      0.45844579	      1.51166821	     -5.32953620	      0.22705517	      0.87904564	     -0.18444881	     -7.69412735	    -13.06023519	     -0.70284873	     47.40361520	     14.83945093	      0.82734916	     -7.98726800	      2.66797854	     -7.50460813	     19.19163988	     -5.05111045	     -3.08867525	     19.69658075	     16.81543725	      0.34377019	      1.67379656	     -2.66127145	     -7.50460813	    -14.26294494	     -2.98319141	      2.42283351	     -5.81628098	    -13.59633008	     -4.83479946	     17.94395593	     90.00000001	      0.00000000	      0.00000000	    -10.92370887	     -9.68014971	      3.05487361	     21.07875423	     90.00000001	      0.00000000	      0.00000000
      2.07000000	      0.14383282	      1.31653316	     -5.13003881	      0.23774622	      0.88045533	     -0.18547863	     -5.57990508	    -12.92303392	      0.31652375	     50.00465187	     15.06127203	      0.87274582	     -8.07480016	      0.24602178	     -7.50399305	     19.02835948	     -5.17733221	     -4.07520619	     20.51426017	     16.56839995	      0.35804138	      3.06242507	     -0.26379561	     -7.50399305	    -14.06700499	     -2.68200979	      2.27559564	     -5.99750904	    -13.64358469	     -4.81103976	     17.86786263	     90.00000001	      0.00000000	      0.00000000	    -10.71126931	     -9.85834273	      3.08589937	     21.22189364	     90.00000001	      0.00000000	      0.00000000
      2.08000000	      0.20302180	      1.18679290	     -4.90976061	      0.24859949	      0.88246992	     -0.18629105	     -3.94410830	    -12.77251296	      0.55089066	     52.29734661	     14.65092740	      0.91276089	     -7.26236576	     -1.09619973	     -7.50391456	     17.99950149	     -5.17547258	     -3.95532758	     20.16642900	     16.71491287	      0.35197058	      3.81754875	      0.24800053	     -7.50391456	    -14.27011034	     -2.49910322	      2.08350380	     -6.14634986	    -13.64336330	     -4.76386682	     17.80376785	     90.00000001	      0.00000000	      0.00000000	    -10.49762402	    -10.09943999	      3.09713578	     21.48185048	     90.00000001	      0.00000000	      0.00000000
      2.09000000	      0.11243831	      1.07658145	     -4.70521701	      0.25933418	      0.88426839	     -0.18715842	     -2.11089837	    -12.62748128	      0.72633712	     54.38247364	     14.23662043	      0.94915322	     -6.16103775	     -2.55652218	     -7.50383660	     17.12960305	     -5.13177230	     -3.88719084	     19.78888392	     16.75130845	      0.34538118	      4.41902712	      0.80857826	     -7.50383660	    -14.26223757	     -2.29654514	      1.89482344	     -6.30650844	    -13.66345668	     -4.72210468	     17.73816320	     90.00000001	      0.00000000	      0.00000000	    -10.32375349	    -10.32557563	      3.13505824	     21.70455682	     90.00000001	      0.00000000	      0.00000000
      2.10000000	     -0.09758926	      0.96771289	     -4.49262373	      0.26973162	      0.88594186	     -0.18816995	     -0.11791262	    -12.48437972	      0.83216071	     56.22338331	     13.83635697	      0.98128316	     -4.88569887	     -3.99835759	     -7.50373656	     16.41021769	     -5.06545302	     -3.86966133	     19.39106924	     16.71323556	      0.33843800	      4.94806540	      1.39598335	     -7.50373656	    -14.15658259	     -2.06240813	      1.70350008	     -6.44099561	    -13.69616351	     -4.69316874	     17.67841494	     90.00000001	      0.00000000	      0.00000000	    -10.12435665	    -10.48413031	      3.22021170	     21.93127129	     90.00000001	      0.00000000	      0.00000000
      2.11000000	     -0.04657165	      0.76623284	     -4.22166290	      0.28018062	      0.88796657	     -0.18903757	      1.42751551	    -12.17581777	      0.71103291	     57.56192765	     13.31202513	      1.00464516	     -3.17479892	     -5.01247211	     -7.50367799	     15.40817166	     -5.08303498	     -3.78993281	     19.02747956	     16.67366493	      0.33209217	      5.36761357	      1.88738004	     -7.50367799	    -14.33573638	     -1.74501724	      1.47928091	     -6.56390349	    -13.71911716	     -4.67396718	     17.66588713	     90.00000001	      0.00000000	      0.00000000	     -9.89599749	    -10.66997815	      3.25144090	     22.13627102	     90.00000001	      0.00000000	      0.00000000
